<svg xmlns="http://www.w3.org/2000/svg" width="40" height="40" viewBox="0 0 120 120" fill="none">
  <!-- Yellow pen nib - main body -->
  <path d="M30 15 L50 8 L65 45 L65 70 L45 75 Z" fill="#E5B918"/>
  <!-- Left prong -->
  <path d="M30 15 L18 5 L45 45 Z" fill="#E5B918"/>
  <!-- Right prong top -->
  <path d="M50 8 L42 2 L45 45 L30 15 Z" fill="#DAAD15"/>
  <!-- Slit between prongs -->
  <path d="M25 8 L45 42 L42 45 L22 11 Z" fill="white"/>
  <!-- Circle detail -->
  <circle cx="50" cy="50" r="10" fill="white" stroke="#E5B918" stroke-width="1"/>
  <circle cx="50" cy="50" r="5" fill="#1a1a1a"/>
  <!-- Black grip/handle -->
  <path d="M60 72 L80 88 Q85 93 80 98 L72 95 Q67 90 62 85 L55 78 Q53 74 58 72 Z" fill="#1a1a1a" rx="3"/>
</svg>